<svg width="24" height="32" viewBox="0 0 24 32" fill="none" xmlns="http://www.w3.org/2000/svg">
<path d="M7.91719 24.5047C7.91719 24.5047 6.72834 25.196 8.76329 25.43C11.2286 25.7112 12.4885 25.6709 15.2054 25.1567C15.2054 25.1567 15.9197 25.6045 16.9171 25.9925C10.8269 28.6027 3.13351 25.8413 7.91719 24.5047ZM7.17296 21.0985C7.17296 21.0985 5.83954 22.0856 7.87602 22.2962C10.5095 22.5679 12.5893 22.5901 16.188 21.8971C16.188 21.8971 16.6858 22.4017 17.4685 22.6777C10.1049 24.8309 1.90323 22.8475 7.17296 21.0985Z" fill="#14B8A6"/>
<path d="M13.4469 15.3206C14.9476 17.0483 13.0526 18.603 13.0526 18.603C13.0526 18.603 16.863 16.636 15.1131 14.1727C13.4787 11.8757 12.2253 10.7343 19.0105 6.79913C19.0105 6.79913 8.35995 9.45913 13.4469 15.3205" fill="#EA580C"/>
<path d="M21.5018 27.0241C21.5018 27.0241 22.3816 27.749 20.5328 28.3098C17.0175 29.3748 5.90133 29.6964 2.81329 28.3522C1.70326 27.8694 3.78496 27.1992 4.43973 27.0585C5.12261 26.9105 5.51292 26.9381 5.51292 26.9381C4.2784 26.0684 -2.46644 28.6457 2.0869 29.3837C14.5044 31.3975 24.7227 28.477 21.5018 27.0241ZM8.48881 17.5694C8.48881 17.5694 2.83455 18.9124 6.48657 19.4C8.02852 19.6065 11.1024 19.5598 13.9657 19.3198C16.3058 19.1226 18.6554 18.7028 18.6554 18.7028C18.6554 18.7028 17.8303 19.0562 17.2334 19.4638C11.4915 20.974 0.399116 20.2714 3.59246 18.7267C6.29308 17.4213 8.4889 17.5694 8.4889 17.5694H8.48881ZM18.6321 23.2391C24.4691 20.2059 21.7703 17.2912 19.8866 17.6839C19.4249 17.78 19.219 17.8632 19.219 17.8632C19.219 17.8632 19.3905 17.5948 19.7178 17.4786C23.4443 16.1684 26.3103 21.3426 18.5148 23.3919C18.5148 23.392 18.6052 23.3113 18.6321 23.2391Z" fill="#14B8A6"/>
<path d="M15.113 0.444792C15.113 0.444792 18.3457 3.67858 12.0471 8.65096C6.99632 12.6398 10.8953 14.9141 12.045 17.5125C9.09675 14.8525 6.93308 12.5109 8.38469 10.3315C10.5151 7.13225 16.4173 5.5812 15.113 0.444702" fill="#EA580C"/>
<path d="M9.06243 31.458C14.6652 31.8167 23.2688 31.259 23.4725 28.608C23.4725 28.608 23.0809 29.6131 18.8422 30.4111C14.0601 31.311 8.1622 31.206 4.66402 30.6292C4.66411 30.6292 5.38014 31.2219 9.06252 31.458" fill="#14B8A6"/>
</svg>
