<svg width="32" height="32" viewBox="0 0 32 32" fill="none" xmlns="http://www.w3.org/2000/svg">
<path d="M31.4246 0.444443H0.139709V31.5556H31.4246V0.444443Z" fill="#F7DF1E"/>
<path d="M21.1552 24.7501C21.7854 25.7733 22.6053 26.5254 24.0553 26.5254C25.2734 26.5254 26.0516 25.92 26.0516 25.0835C26.0516 24.081 25.2521 23.7259 23.9113 23.1427L23.1763 22.8291C21.0549 21.9304 19.6456 20.8044 19.6456 18.4242C19.6456 16.2316 21.3256 14.5625 23.951 14.5625C25.8202 14.5625 27.1639 15.2094 28.1323 16.9032L25.843 18.3649C25.339 17.4662 24.7952 17.1121 23.951 17.1121C23.0899 17.1121 22.5442 17.6553 22.5442 18.3649C22.5442 19.242 23.0904 19.597 24.3518 20.1402L25.0867 20.4533C27.5845 21.5185 28.9948 22.6044 28.9948 25.0459C28.9948 27.678 26.9156 29.12 24.1233 29.12C21.3931 29.12 19.6292 27.8262 18.7662 26.1304L21.1552 24.7501ZM10.7701 25.0035C11.2319 25.8183 11.6521 26.5072 12.6621 26.5072C13.628 26.5072 14.2373 26.1314 14.2373 24.6701V14.7294H17.1771V24.7096C17.1771 27.7368 15.3923 29.1146 12.7873 29.1146C10.4334 29.1146 9.07031 27.9032 8.37708 26.4442L10.7701 25.0035Z" fill="black"/>
</svg>
