<svg width="32" height="32" viewBox="0 0 32 32" fill="none" xmlns="http://www.w3.org/2000/svg">
<path d="M31.1702 5.04919L16.8228 31.1494C16.5266 31.6884 15.7655 31.6915 15.4648 31.1553L0.832993 5.05161C0.505375 4.46732 0.996564 3.75946 1.6475 3.87792L16.0103 6.48955C16.102 6.5062 16.1958 6.50604 16.2874 6.48906L30.3498 3.88156C30.9985 3.76128 31.492 4.46367 31.1702 5.04919Z" fill="url(#paint0_linear_1_5769)"/>
<path d="M22.852 0.452118L12.2346 2.56866C12.1498 2.58557 12.0729 2.63068 12.016 2.6969C11.9591 2.76312 11.9255 2.8467 11.9204 2.93449L11.2673 14.1564C11.2637 14.2179 11.2743 14.2795 11.2981 14.3361C11.322 14.3928 11.3585 14.443 11.4048 14.4828C11.4511 14.5226 11.5059 14.5509 11.5648 14.5654C11.6237 14.5799 11.6851 14.5802 11.7442 14.5664L14.7002 13.8724C14.9768 13.8074 15.2267 14.0553 15.1698 14.3382L14.2916 18.7134C14.2326 19.0079 14.5042 19.2596 14.7869 19.1722L16.6127 18.6079C16.8957 18.5205 17.1678 18.773 17.1079 19.0677L15.7122 25.9401C15.6249 26.37 16.1869 26.6044 16.4213 26.2359L16.5779 25.9897L25.2296 8.4243C25.3746 8.1302 25.1246 7.79484 24.8073 7.85723L21.7643 8.45464C21.4785 8.51072 21.2352 8.23981 21.3158 7.9553L23.3018 0.951335C23.3826 0.666103 23.1384 0.395071 22.8522 0.452118H22.852Z" fill="url(#paint1_linear_1_5769)"/>
<defs>
<linearGradient id="paint0_linear_1_5769" x1="0.475745" y1="5.9837" x2="16.2959" y2="27.1028" gradientUnits="userSpaceOnUse">
<stop stop-color="#41D1FF"/>
<stop offset="1" stop-color="#BD34FE"/>
</linearGradient>
<linearGradient id="paint1_linear_1_5769" x1="17.3415" y1="1.0268" x2="20.6336" y2="23.2253" gradientUnits="userSpaceOnUse">
<stop stop-color="#FFEA83"/>
<stop offset="0.083" stop-color="#FFDD35"/>
<stop offset="1" stop-color="#FFA800"/>
</linearGradient>
</defs>
</svg>
